<svg width="163" height="219" viewBox="0 0 163 219" fill="none" xmlns="http://www.w3.org/2000/svg">
<path d="M34.9475 137.934L27.7688 135.996" stroke="black" stroke-width="1.5" stroke-miterlimit="10" stroke-linecap="round" stroke-linejoin="round"/>
<path d="M151.133 95.263L18.2654 101.079L3.52173 68.8877L114.277 68.1079L151.133 95.263Z" fill="white" stroke="black" stroke-width="1.5" stroke-miterlimit="10" stroke-linecap="round" stroke-linejoin="round"/>
<path d="M144.34 146.665L151.133 95.2627L18.2652 101.079L17.6821 153.064L144.34 146.665Z" fill="white" stroke="black" stroke-width="1.5" stroke-miterlimit="10" stroke-linecap="round" stroke-linejoin="round"/>
<path d="M3.52164 68.8877L1 123.774L17.6822 153.064L18.2653 101.079L3.52164 68.8877Z" fill="white" stroke="black" stroke-width="1.5" stroke-miterlimit="10" stroke-linecap="round" stroke-linejoin="round"/>
<path d="M63.8662 103.236L61.5049 146.148" stroke="black" stroke-width="1.5" stroke-miterlimit="10" stroke-linecap="round" stroke-linejoin="round"/>
<path d="M70.9866 103.112L68.6252 146.024" stroke="black" stroke-width="1.5" stroke-miterlimit="10" stroke-linecap="round" stroke-linejoin="round"/>
<path d="M78.1069 102.988L75.7456 145.9" stroke="black" stroke-width="1.5" stroke-miterlimit="10" stroke-linecap="round" stroke-linejoin="round"/>
<path d="M85.2273 102.864L82.866 145.776" stroke="black" stroke-width="1.5" stroke-miterlimit="10" stroke-linecap="round" stroke-linejoin="round"/>
<path d="M92.3479 102.741L89.9866 145.652" stroke="black" stroke-width="1.5" stroke-miterlimit="10" stroke-linecap="round" stroke-linejoin="round"/>
<path d="M99.4682 102.617L97.1069 145.536" stroke="black" stroke-width="1.5" stroke-miterlimit="10" stroke-linecap="round" stroke-linejoin="round"/>
<path d="M106.589 102.493L104.227 145.412" stroke="black" stroke-width="1.5" stroke-miterlimit="10" stroke-linecap="round" stroke-linejoin="round"/>
<path d="M113.709 102.369L111.348 145.288" stroke="black" stroke-width="1.5" stroke-miterlimit="10" stroke-linecap="round" stroke-linejoin="round"/>
<path d="M150.761 152.751L24.6569 143.138L14.3662 200.604L161.941 212.68L150.761 152.751Z" fill="white" stroke="black" stroke-width="1.5" stroke-miterlimit="10" stroke-linecap="round" stroke-linejoin="round"/>
<path d="M110.561 163.078L112.696 204.299L156.074 208.103L149.311 166.233L110.561 163.078Z" stroke="black" stroke-width="1.5" stroke-miterlimit="10" stroke-linecap="round" stroke-linejoin="round"/>
<path d="M108.68 204.306L20.2402 196.777L25.0285 166.153L107.652 172.829L108.68 204.306Z" stroke="black" stroke-width="1.5" stroke-miterlimit="10" stroke-linecap="round" stroke-linejoin="round"/>
<path d="M111.071 152.984L146.483 155.892" stroke="black" stroke-width="1.5" stroke-miterlimit="10" stroke-linecap="round" stroke-linejoin="round"/>
<path d="M111.588 155.724L146.993 158.632" stroke="black" stroke-width="1.5" stroke-miterlimit="10" stroke-linecap="round" stroke-linejoin="round"/>
<path d="M111.756 158.29L147.168 161.197" stroke="black" stroke-width="1.5" stroke-miterlimit="10" stroke-linecap="round" stroke-linejoin="round"/>
<path d="M161.941 212.68L161.139 218L14.1694 206.514L14.3662 200.604" stroke="black" stroke-width="1.5" stroke-miterlimit="10" stroke-linecap="round" stroke-linejoin="round"/>
<path d="M41.0549 190.961L93.0475 195.254" stroke="black" stroke-width="1.5" stroke-miterlimit="10" stroke-linecap="round" stroke-linejoin="round"/>
<path d="M26.8652 183.28L103.287 189.519" stroke="black" stroke-width="1.5" stroke-miterlimit="10" stroke-linecap="round" stroke-linejoin="round"/>
<path d="M27.011 177.42L103.433 183.659" stroke="black" stroke-width="1.5" stroke-miterlimit="10" stroke-linecap="round" stroke-linejoin="round"/>
<path d="M27.1494 171.342L103.571 177.581" stroke="black" stroke-width="1.5" stroke-miterlimit="10" stroke-linecap="round" stroke-linejoin="round"/>
<path d="M34.9474 137.934L21.3188 132.461" stroke="black" stroke-width="1.5" stroke-miterlimit="10" stroke-linecap="round" stroke-linejoin="round"/>
<path d="M45.4202 10.1099L139.683 9.91309L131.732 90.5985C131.732 90.5985 40.377 93.8927 40.377 93.3169C40.377 92.7412 45.4202 10.1099 45.4202 10.1099Z" fill="white" stroke="black" stroke-width="1.5" stroke-miterlimit="10" stroke-linecap="round" stroke-linejoin="round"/>
<path d="M139.683 9.92051L109.424 1.57575L28.9349 1L23.498 77.422L40.3771 93.3244L45.4203 10.11L139.683 9.92051Z" fill="white" stroke="black" stroke-width="1.5" stroke-miterlimit="10" stroke-linecap="round" stroke-linejoin="round"/>
<path d="M50.6531 15.1534L134.837 14.5776L128.438 78.3914L46.1929 79.5501L50.6531 15.1534Z" fill="white" stroke="black" stroke-width="1.5" stroke-miterlimit="10" stroke-linecap="round" stroke-linejoin="round"/>
<path d="M56.8624 22.332H125.916L120.676 71.2126L54.7271 71.9852L56.8624 22.332Z" fill="#45D62F" stroke="black" stroke-width="1.5" stroke-linecap="round" stroke-linejoin="round"/>
<path d="M41.3464 83.2379L131.929 81.4888" stroke="black" stroke-width="1.5" stroke-miterlimit="10" stroke-linecap="round" stroke-linejoin="round"/>
<path d="M78.8505 10.212C78.8505 10.212 70.994 4.95737 65.1636 1.88184" stroke="black" stroke-width="1.5" stroke-miterlimit="10" stroke-linecap="round" stroke-linejoin="round"/>
<path d="M59.9891 5.15416C59.9891 5.15416 58.6918 3.25928 51.8047 3.25928C44.9175 3.25928 42.3667 3.3686 42.3667 3.3686" stroke="black" stroke-width="1.5" stroke-miterlimit="10" stroke-linecap="round" stroke-linejoin="round"/>
<path d="M85.2857 8.98766L74.3464 2.18066" stroke="black" stroke-width="1.5" stroke-miterlimit="10" stroke-linecap="round" stroke-linejoin="round"/>
</svg>
