<svg width="323" height="291" viewBox="0 0 323 291" fill="none" xmlns="http://www.w3.org/2000/svg">
<path d="M65.7338 190.539C77.9223 190.539 87.803 180.658 87.803 168.469C87.803 156.281 77.9223 146.4 65.7338 146.4C53.5453 146.4 43.6646 156.281 43.6646 168.469C43.6646 180.658 53.5453 190.539 65.7338 190.539Z" fill="#45D62F" stroke="#031F43" stroke-width="2" stroke-linecap="round" stroke-linejoin="round"/>
<path d="M122.401 187.453C134.59 187.453 144.47 177.572 144.47 165.384C144.47 153.195 134.59 143.314 122.401 143.314C110.213 143.314 100.332 153.195 100.332 165.384C100.332 177.572 110.213 187.453 122.401 187.453Z" fill="#45D62F" stroke="#031F43" stroke-width="2" stroke-linecap="round" stroke-linejoin="round"/>
<path d="M47.5148 259.585C47.9901 254.301 38.6931 249.147 26.7494 248.073C14.8057 246.998 4.73803 250.41 4.26272 255.694C3.78741 260.978 13.0844 266.132 25.0281 267.206C36.9719 268.281 47.0395 264.869 47.5148 259.585Z" fill="#031F43"/>
<path d="M26.0983 199.245C26.2603 198.921 24.3004 193.049 29.3621 186.522C34.4158 179.994 46.3291 168.575 54.8086 170.373C63.288 172.171 64.106 177.386 67.2079 184.076C70.3097 190.765 74.7154 200.063 76.1813 208.874C77.6472 217.686 76.0193 232.531 65.9039 236.929C55.7885 241.334 53.9987 247.206 48.775 247.206C43.5512 247.206 35.2338 244.922 29.8562 236.443C24.4624 227.955 25.9363 199.569 26.0983 199.245Z" fill="#347CE1" stroke="#031F43" stroke-width="2" stroke-miterlimit="10" stroke-linecap="round" stroke-linejoin="round"/>
<path d="M37.728 259.468C42.1419 253.288 40.7408 237.601 42.9761 230.061C45.2113 222.521 57.7888 206.526 58.5096 202.978C59.53 197.99 57.5863 195.762 57.5863 195.762C57.5863 195.762 61.1579 191.47 58.9712 188.627C57.7807 187.072 56.3958 187.242 56.3958 187.242C56.3958 187.242 58.299 184.546 56.2662 183.015C53.7718 181.144 50.3136 182.788 50.3136 182.788C50.3136 182.788 49.7791 180.18 48.4266 180.059C44.6039 179.711 35.7762 185.274 30.1962 189.429C24.6161 193.584 15.1405 202.128 12.1601 210.948C9.17167 219.775 10.2326 249.846 12.1277 254.098C14.0228 258.35 17.4891 262.812 24.9805 262.926C32.4719 263.047 35.5981 262.44 37.728 259.468Z" fill="white" stroke="#031F43" stroke-width="2" stroke-miterlimit="10" stroke-linecap="round" stroke-linejoin="round"/>
<path d="M57.5945 195.77C57.5945 195.77 41.2106 216.131 40.1982 217.896" stroke="#031F43" stroke-width="2" stroke-miterlimit="10" stroke-linecap="round" stroke-linejoin="round"/>
<path d="M56.3392 187.113C56.3392 187.113 35.9059 210.324 34.8936 212.09" stroke="#031F43" stroke-width="2" stroke-miterlimit="10" stroke-linecap="round" stroke-linejoin="round"/>
<path d="M50.3137 182.796C50.3137 182.796 29.1596 203.391 26.8677 207.182" stroke="#031F43" stroke-width="2" stroke-miterlimit="10" stroke-linecap="round" stroke-linejoin="round"/>
<path d="M160.004 172.073C160.004 172.073 154.408 158.654 151.055 158.84C147.702 159.026 144.713 159.958 146.025 163.497C147.337 167.036 154.043 185.121 157.21 190.158C160.376 195.187 166.345 200.97 178.089 207.125C189.832 213.28 204.005 226.7 204.005 226.7C204.005 226.7 210.953 220.65 213.569 215.783C216.185 210.915 216.525 206.809 216.525 206.809C216.525 206.809 212.727 201.747 210.192 195.414C207.657 189.081 210.03 177.216 209.399 169.142C208.767 161.067 198.319 147.939 192.626 147.145C186.932 146.352 167.463 151.259 164.296 154.11C161.13 156.961 159.55 171.361 161.445 174.997C163.341 178.633 165.56 179.111 165.56 179.111C165.56 179.111 167.455 185.598 170.152 186.076C172.849 186.554 174.744 184.813 174.744 184.813C174.744 184.813 179.02 189.721 182.025 185.922C185.029 182.124 181.231 171.361 181.231 171.361L192.148 171.045" stroke="#031F43" stroke-width="2" stroke-miterlimit="10" stroke-linecap="round" stroke-linejoin="round"/>
<path d="M174.736 184.805C174.736 184.805 171.124 172.13 173.464 166.939C175.805 161.747 191.889 160.832 191.889 160.832" stroke="#031F43" stroke-width="2" stroke-miterlimit="10" stroke-linecap="round" stroke-linejoin="round"/>
<path d="M166.078 179.921C166.078 179.921 165.39 166.979 167.868 161.853C170.346 156.726 183.644 156.151 183.644 156.151" stroke="#031F43" stroke-width="2" stroke-miterlimit="10" stroke-linecap="round" stroke-linejoin="round"/>
<path d="M185.175 147.502C185.175 147.502 172.249 139.46 168.483 140.885C164.717 142.31 144.462 153.3 144.972 156.151C145.483 159.002 148.738 159.407 153.014 157.779C157.291 156.151 164.296 154.102 164.296 154.102" stroke="#031F43" stroke-width="2" stroke-miterlimit="10" stroke-linecap="round" stroke-linejoin="round"/>
<path d="M5.00892 254.705C5.00892 254.705 1 275.997 1 286.186" stroke="#031F43" stroke-width="2" stroke-miterlimit="10" stroke-linecap="round" stroke-linejoin="round"/>
<path d="M46.9851 258.52C46.9527 258.917 50.6619 283.853 50.994 290" stroke="#031F43" stroke-width="2" stroke-miterlimit="10" stroke-linecap="round" stroke-linejoin="round"/>
<path d="M195.946 219.646C195.946 219.646 190.245 236.742 194.391 241.237C198.538 245.732 205.495 237.495 209.641 229.899C213.788 222.302 217.368 207.724 217.368 207.724C217.368 207.724 209.949 221.241 207.617 223.574C205.284 225.906 203.997 226.7 203.997 226.7L195.946 219.646Z" fill="#031F43"/>
<path d="M216.517 206.801L268.091 239.69" stroke="#031F43" stroke-width="2" stroke-miterlimit="10" stroke-linecap="round" stroke-linejoin="round"/>
<path d="M51.1802 163.327C51.1802 163.327 55.1081 161.885 63.4175 160.63C71.7268 159.374 77.1449 160.63 77.1449 160.63" stroke="#031F43" stroke-width="2" stroke-miterlimit="10" stroke-linecap="round" stroke-linejoin="round"/>
<path d="M57.1328 161.593C57.1328 161.593 57.3272 171.644 65.3531 170.875C73.379 170.105 71.8321 159.755 71.8321 159.755C71.8321 159.755 66.0334 159.852 63.4256 160.622C60.8097 161.399 57.1328 161.593 57.1328 161.593Z" fill="#031F43"/>
<path d="M106.803 161.399C106.803 161.399 110.787 160.144 119.153 159.269C127.519 158.394 132.865 159.901 132.865 159.901" stroke="#031F43" stroke-width="2" stroke-miterlimit="10" stroke-linecap="round" stroke-linejoin="round"/>
<path d="M112.828 159.941C112.828 159.941 112.561 169.992 120.611 169.587C128.661 169.182 127.592 158.783 127.592 158.783C127.592 158.783 121.794 158.613 119.153 159.261C116.513 159.917 112.828 159.941 112.828 159.941Z" fill="#031F43"/>
<path d="M85.4219 158.257C85.4219 158.257 87.074 154.701 93.4883 154.58C99.5057 154.458 101.425 157.617 101.425 157.617" stroke="#031F43" stroke-width="2" stroke-linecap="round" stroke-linejoin="round"/>
<path d="M59.5786 147.202C59.5786 147.202 92.1277 122.468 97.4162 122.152C102.705 121.836 103.231 127.967 103.231 127.967" stroke="#031F43" stroke-width="2" stroke-linecap="round" stroke-linejoin="round"/>
<path d="M177.708 142.788C177.708 142.788 210.257 118.054 215.545 117.738C220.834 117.423 221.36 123.553 221.36 123.553" stroke="#031F43" stroke-width="2" stroke-linecap="round" stroke-linejoin="round"/>
<path d="M128.054 89.4331C128.054 89.4331 127.908 97.6777 126.062 104.076C124.215 110.474 122.79 113.033 122.79 113.033C122.79 113.033 128.475 115.446 134.023 115.025" stroke="#031F43" stroke-width="2" stroke-linecap="round" stroke-linejoin="round"/>
<path d="M126.062 129.393L148.382 121.569C148.382 121.569 150.512 132.656 142.697 135.928C134.873 139.2 126.062 129.393 126.062 129.393Z" stroke="#031F43" stroke-width="2" stroke-linecap="round" stroke-linejoin="round"/>
<path d="M177.732 137.856C177.732 137.856 186.746 131.012 188.074 116.159" stroke="#031F43" stroke-width="2" stroke-linecap="round" stroke-linejoin="round"/>
<path d="M102.033 71.5914C102.033 71.5914 109.84 110.741 118.846 143.12" stroke="#031F43" stroke-width="2" stroke-linecap="round" stroke-linejoin="round"/>
<path d="M197.712 110.644C197.712 110.644 209.366 145.688 208.151 150.709C206.936 155.73 204.345 156.248 204.345 156.248" stroke="#031F43" stroke-width="2" stroke-linecap="round" stroke-linejoin="round"/>
<path d="M209.277 140.585C210.37 140.221 321.494 163.424 321.494 284.784" stroke="#031F43" stroke-width="2" stroke-linecap="round" stroke-linejoin="round"/>
<path d="M203.47 111.729C200.498 114.28 195.946 113.276 194.262 109.737C193.104 107.299 192.197 104.659 192.747 103.161C193.97 99.8482 199.899 95.3047 197.631 88.85C195.363 82.3952 188.73 76.8071 186.989 85.3594C185.248 93.9117 184.025 95.653 179.66 93.7336C175.294 91.8142 177.918 59.1841 169.536 53.7741C161.154 48.3641 149.297 58.8358 141.62 60.407C133.942 61.9782 125.219 69.4777 110.212 58.6658C95.2053 47.8457 95.0352 44.7034 91.8929 35.6327C88.7505 26.5621 87.7058 18.8844 87.7058 18.8844C87.7058 18.8844 106.025 18.7062 122.255 9.28734C138.485 -0.13157 173.901 -5.88983 193.096 9.63558C212.29 25.161 214.031 30.4009 214.557 46.4528C215.084 62.5046 214.906 65.1205 216.299 70.7087C217.692 76.2968 216.979 92.0571 212.112 100.723C209.099 106.092 206.021 109.534 203.47 111.729Z" fill="#031F43"/>
<path d="M96.2501 42.4438C96.2501 42.4438 88.7506 51.5145 90.3137 70.0121C91.8848 88.5098 106.228 117.212 109.232 108.174C109.556 107.202 99.36 57.9935 103.563 49.0929C107.767 40.1923 96.2501 42.4438 96.2501 42.4438Z" fill="#031F43"/>
<path d="M194.124 239.917L220.421 285.789" stroke="#031F43" stroke-width="2" stroke-linecap="round" stroke-linejoin="round"/>
</svg>
