<svg width="15" height="12" viewBox="0 0 15 12" fill="none" xmlns="http://www.w3.org/2000/svg">
<path d="M4.70825 12C2.97522 12 1.35974 11.5091 0 10.6621C1.15446 10.7348 3.19182 10.5606 4.45906 9.38337C2.55272 9.29817 1.693 7.87424 1.58086 7.26572C1.74284 7.32657 2.51534 7.39959 2.95143 7.22921C0.758517 6.69371 0.422104 4.81947 0.496863 4.24746C0.908034 4.52738 1.60578 4.62475 1.87989 4.60041C-0.163504 3.17647 0.571621 1.03448 0.932953 0.572008C2.39937 2.55061 4.59707 3.66186 7.31592 3.72367C7.26466 3.50471 7.23758 3.27674 7.23758 3.0426C7.23758 1.36222 8.63218 0 10.3525 0C11.2514 0 12.0613 0.371872 12.6298 0.966698C13.2305 0.82962 14.1344 0.508731 14.5764 0.231237C14.3536 1.01014 13.6601 1.65991 13.2407 1.90074C13.2441 1.90893 13.2372 1.89251 13.2407 1.90074C13.6091 1.84645 14.6061 1.65984 15 1.39959C14.8052 1.83717 14.07 2.56473 13.4666 2.97205C13.5789 7.79377 9.79097 12 4.70825 12Z" fill="#1D9BF0"/>
</svg>
