<svg width="74" height="107" viewBox="0 0 74 107" fill="none" xmlns="http://www.w3.org/2000/svg">
<path fill-rule="evenodd" clip-rule="evenodd" d="M57.5561 67.7644C54.5898 69.7464 51.3695 71.2779 48 72.3271V107H37L37 74L37 63L37 62.994C42.1411 62.994 47.1668 61.4695 51.4415 58.6132C55.7162 55.757 59.0479 51.6973 61.0153 46.9475C62.9827 42.1977 63.4975 36.9712 62.4945 31.9288C61.4915 26.8865 59.0158 22.2548 55.3805 18.6195C51.7452 14.9842 47.1135 12.5085 42.0712 11.5055C37.0288 10.5025 31.8023 11.0173 27.0525 12.9847C22.3028 14.9521 18.2431 18.2838 15.3868 22.5585C12.5305 26.8332 11.006 31.8589 11.006 37H0C0 29.6821 2.17001 22.5285 6.23562 16.4439C10.3012 10.3593 16.0798 5.61692 22.8407 2.81647C29.6016 0.0160312 37.041 -0.716692 44.2183 0.710962C51.3956 2.13861 57.9884 5.66252 63.1629 10.8371C68.3375 16.0116 71.8614 22.6044 73.2891 29.7817C74.7167 36.959 73.984 44.3984 71.1835 51.1593C68.3831 57.9202 63.6407 63.6988 57.5561 67.7644Z" fill="#45D62F"/>
</svg>
